<?xml version="1.0" encoding="UTF-8" standalone="no"?>
<!DOCTYPE svg PUBLIC "-//W3C//DTD SVG 1.1//EN" "http://www.w3.org/Graphics/SVG/1.1/DTD/svg11.dtd">
<svg width="100%" height="100%" viewBox="0 0 1167 1168" version="1.1" xmlns="http://www.w3.org/2000/svg" xmlns:xlink="http://www.w3.org/1999/xlink" xml:space="preserve" xmlns:serif="http://www.serif.com/" style="fill-rule:evenodd;clip-rule:evenodd;stroke-linecap:round;stroke-linejoin:round;stroke-miterlimit:1.5;">
    <g transform="matrix(1,0,0,1,0,-376)">
        <g id="Trackstar-Overlay" serif:id="Trackstar Overlay" transform="matrix(1,0,0,1,-2696.77,-519.664)">
            <rect x="2696.77" y="896.527" width="1166.21" height="1166.21" style="fill:none;"/>
            <g transform="matrix(6.12323e-17,1,-1,6.12323e-17,5450.95,578.377)">
                <path d="M901.257,1650L1022.83,2024.17L1416.26,2024.17L1097.97,2255.42L1219.55,2629.6L901.257,2398.35L582.967,2629.6L704.543,2255.42L386.252,2024.17L779.681,2024.17L901.257,1650Z" style="fill:none;"/>
                <clipPath id="_clip1">
                    <path d="M901.257,1650L1022.83,2024.17L1416.26,2024.17L1097.97,2255.42L1219.55,2629.6L901.257,2398.35L582.967,2629.6L704.543,2255.42L386.252,2024.17L779.681,2024.17L901.257,1650Z"/>
                </clipPath>
                <g clip-path="url(#_clip1)">
                    <g transform="matrix(6.12323e-17,-1,1,6.12323e-17,-1370.81,3582.56)">
                        <g transform="matrix(1.10111,0,0,1.12497,-154.89,-270.794)">
                            <rect x="913.763" y="1744.04" width="1058" height="1019.23"/>
                        </g>
                        <g transform="matrix(1,0,0,-1,0,4554.92)">
                            <path d="M990.196,1847.38L990.196,2707.55L1145.32,2331.62L1146.84,2331.66C1146.08,2372.05 1139.89,2714.17 1148.44,2713.54C1257.39,2705.51 1312.59,2391.1 1321.44,2335.99L1322.42,2336.01C1320.51,2391.89 1310.05,2713.57 1322.71,2713.54C1408.47,2713.35 1488.16,2407.23 1504.51,2340.52L1507.07,2340.58C1504.62,2406.71 1494.22,2706.59 1507.56,2707.55C1586.94,2713.23 1656.26,2419.04 1672.49,2344.68L1675.49,2344.75C1673.01,2419.28 1663.95,2713.84 1676.07,2713.54C1773.44,2711.16 1834.58,2429.61 1850.08,2349.08L1853.99,2349.17L1853.99,2713.54L1971.77,2278.2L1853.99,1841.38L1853.99,2204.66L1849.86,2204.68C1833.99,2122.64 1772.97,1843.75 1676.07,1841.38C1664.2,1841.1 1672.65,2123.98 1675.33,2205.44L1671.44,2205.46C1653.44,2124.08 1585.34,1841.81 1507.56,1847.38C1494.71,1848.3 1503.89,2126.68 1506.78,2206.17L1502.47,2206.19C1482.35,2125.8 1405.34,1841.57 1322.71,1841.38C1310.77,1841.36 1319.4,2127.64 1322.02,2206.97L1319.45,2206.98C1306.07,2128.72 1251.14,1848.96 1148.44,1841.38C1140.59,1840.81 1145.17,2129.41 1146.55,2207.74L1138.91,2207.77L990.196,1847.38Z" style="fill:rgb(12,87,208);"/>
                        </g>
                        <g transform="matrix(1,0,0,-1,0,4554.92)">
                            <path d="M990.196,2039.46L990.196,2501.66L1145.32,2331.62L1146.84,2331.66C1146.08,2372.05 1147.19,2722.02 1148.44,2713.54C1203.61,2337.76 1312.59,2391.1 1321.44,2335.99L1322.42,2336.01C1320.51,2391.89 1321.83,2726.16 1322.71,2713.54C1356.28,2230.17 1488.16,2407.23 1504.51,2340.52L1507.07,2340.58C1504.62,2406.71 1500.62,2718.97 1507.56,2707.55C1712.51,2370.4 1656.26,2419.04 1672.49,2344.68L1675.49,2344.75C1673.01,2419.28 1673.46,2725.38 1676.07,2713.54C1750.5,2375.46 1797.77,2412.7 1850.08,2349.08L1853.99,2349.17L1853.99,2526.62L1971.77,2278.2L1853.99,2042.75C1853.99,2042.75 1854.67,2177.68 1853.99,2204.66C1853.95,2206.04 1849.86,2204.68 1849.86,2204.68C1833.99,2122.64 1759.5,2221.99 1676.07,1841.38C1673.53,1829.78 1672.65,2123.98 1675.33,2205.44L1671.44,2205.46C1653.44,2124.08 1659.16,2098.4 1507.56,1847.38C1500.9,1836.35 1503.89,2126.68 1506.78,2206.17L1502.47,2206.19C1482.35,2125.8 1354.04,2315.97 1322.71,1841.38C1321.92,1829.47 1319.4,2127.64 1322.02,2206.97L1319.45,2206.98C1269.98,2108.35 1222.27,2229.84 1148.44,1841.38C1146.97,1833.65 1145.17,2129.41 1146.55,2207.74L1138.91,2207.77L990.196,2039.46Z" style="fill:rgb(2,210,109);"/>
                        </g>
                        <g transform="matrix(1,1.0398e-16,-1.0398e-16,-0.150942,3.3988e-13,2621.23)">
                            <path d="M990.196,2039.46L990.196,2501.66L1145.32,2331.62L1146.84,2331.66C1146.08,2372.05 1147.19,2722.02 1148.44,2713.54C1203.61,2337.76 1312.59,2391.1 1321.44,2335.99L1322.42,2336.01C1320.51,2391.89 1321.83,2726.16 1322.71,2713.54C1356.28,2230.17 1488.16,2407.23 1504.51,2340.52L1507.07,2340.58C1504.62,2406.71 1500.62,2718.97 1507.56,2707.55C1712.51,2370.4 1656.26,2419.04 1672.49,2344.68L1675.49,2344.75C1673.01,2419.28 1673.46,2725.38 1676.07,2713.54C1750.5,2375.46 1797.77,2412.7 1850.08,2349.08L1853.99,2349.17L1853.99,2526.62L1971.77,2278.2L1853.99,2042.75C1853.99,2042.75 1854.67,2177.68 1853.99,2204.66C1853.95,2206.04 1849.86,2204.68 1849.86,2204.68C1833.99,2122.64 1759.5,2221.99 1676.07,1841.38C1673.53,1829.78 1672.65,2123.98 1675.33,2205.44L1671.44,2205.46C1653.44,2124.08 1659.16,2098.4 1507.56,1847.38C1500.9,1836.35 1503.89,2126.68 1506.78,2206.17L1502.47,2206.19C1482.35,2125.8 1354.04,2315.97 1322.71,1841.38C1321.92,1829.47 1319.4,2127.64 1322.02,2206.97L1319.45,2206.98C1269.98,2108.35 1222.27,2229.84 1148.44,1841.38C1146.97,1833.65 1145.17,2129.41 1146.55,2207.74L1138.91,2207.77L990.196,2039.46Z" style="fill:white;"/>
                        </g>
                    </g>
                </g>
                <path d="M901.257,1650L1022.83,2024.17L1416.26,2024.17L1097.97,2255.42L1219.55,2629.6L901.257,2398.35L582.967,2629.6L704.543,2255.42L386.252,2024.17L779.681,2024.17L901.257,1650Z" style="fill:none;stroke:black;stroke-width:25px;"/>
            </g>
            <g id="OBS" transform="matrix(0.472966,0,0,0.472966,3349.37,1524.44)">
                <g>
                    <g transform="matrix(1,0,0,1,-18,-20)">
                        <path d="M514.5,20C788.71,20 1011,242.29 1011,516.5C1011,790.71 788.71,1013 514.5,1013C240.29,1013 18,790.711 18,516.5C18,242.289 240.289,20 514.5,20" style="fill:url(#_Radial2);fill-rule:nonzero;"/>
                    </g>
                    <g transform="matrix(1,0,0,1,-18,-20)">
                        <path d="M512.06,25.849C780.62,25.849 998.33,243.559 998.33,512.119C998.33,780.679 780.62,998.389 512.06,998.389C243.5,998.389 25.79,780.679 25.79,512.119C25.79,243.559 243.5,25.849 512.06,25.849" style="fill:url(#_Radial3);fill-rule:nonzero;"/>
                    </g>
                    <g transform="matrix(1,0,0,1,-18,-20)">
                        <path d="M67.938,512.12C67.938,757.41 266.778,956.24 512.058,956.24C757.338,956.24 956.188,757.41 956.188,512.12C956.188,266.84 757.348,68 512.058,68C266.768,68 67.938,266.84 67.938,512.12" style="fill:url(#_Radial4);fill-rule:nonzero;"/>
                    </g>
                </g>
                <g>
                    <clipPath id="_clip5">
                        <path d="M49.938,492.12C49.938,737.41 248.778,936.24 494.058,936.24C739.338,936.24 938.188,737.41 938.188,492.12C938.188,246.84 739.348,48 494.058,48C248.768,48 49.938,246.84 49.938,492.12"/>
                    </clipPath>
                    <g clip-path="url(#_clip5)">
                        <rect x="49.938" y="48" width="888.25" height="888.24" style="fill:url(#_Radial6);"/>
                    </g>
                </g>
                <g>
                    <clipPath id="_clip7">
                        <path d="M53.603,492.12C53.603,735.38 250.803,932.58 494.063,932.58C737.323,932.58 934.523,735.39 934.523,492.12C934.523,248.86 737.323,51.66 494.063,51.66C250.803,51.66 53.603,248.86 53.603,492.12"/>
                    </clipPath>
                    <g clip-path="url(#_clip7)">
                        <rect x="53.603" y="51.665" width="880.92" height="880.91" style="fill:url(#_Radial8);"/>
                    </g>
                </g>
                <g transform="matrix(1,0,0,1,-18,-20)">
                    <path d="M684.91,370.5C649.426,432.3 583.388,470.533 512.125,470.533C475.244,470.533 439.077,460.292 407.67,440.956C390.946,430.61 375.817,417.885 362.757,403.183C328.395,364.445 310.482,313.78 312.859,262.053C313.143,256.263 313.628,250.49 314.386,244.743C315.133,239.079 316.132,233.44 317.363,227.869C318.628,222.15 320.144,216.496 321.911,210.907C323.625,205.467 325.58,200.109 327.774,194.834C330.049,189.349 332.585,183.98 335.321,178.712C338.202,173.164 341.394,167.767 344.802,162.528C347.945,157.696 351.293,153.008 354.846,148.466C358.7,143.515 362.796,138.739 367.117,134.19C371.478,129.598 376.034,125.211 380.786,121.028C385.624,116.765 390.698,112.778 395.926,109.006C398.621,107.061 401.366,105.191 404.162,103.394C286.774,163.371 237.982,308.071 295.082,426.884C295.629,428.02 296.185,429.152 296.75,430.279C297.006,430.791 297.264,431.303 297.524,431.813C297.646,432.135 297.804,432.443 297.994,432.73C298.318,433.089 298.399,433.029 298.894,433.02C301.472,432.973 304.052,432.985 306.63,433.041C311.393,433.143 316.148,433.415 320.896,433.855C410.899,442.364 484.414,511.015 499.056,600.225C502.282,620.135 502.499,640.417 499.697,660.391C494.377,698.059 478.353,733.419 453.536,762.251C439.306,778.772 422.496,792.883 403.759,804.035C366.361,826.12 322.765,835.424 279.609,830.529C271.804,829.636 264.056,828.29 256.406,826.499C251.452,825.336 246.546,823.968 241.695,822.428C263.488,832.086 286.585,838.479 310.242,841.401C332.314,844.126 354.653,843.857 376.652,840.603C415.996,834.741 453.311,819.328 485.322,795.716C508.816,778.401 529.043,757.043 545.055,732.642C545.749,731.584 546.435,730.521 547.113,729.452C547.376,729.037 547.964,728.383 547.887,727.943C547.623,727.252 547.27,726.598 546.837,725.998C545.502,723.493 544.22,720.961 542.993,718.4C540.528,713.256 538.287,708.012 536.271,702.668C532.189,691.84 529.063,680.675 526.93,669.301C522.364,644.852 522.378,619.765 526.971,595.321C530.881,574.556 538.092,554.551 548.328,536.066C583.059,472.985 649.41,433.478 721.418,433.006C726.31,432.972 731.197,433.114 736.081,433.431C740.792,433.744 745.488,434.217 750.169,434.849C754.804,435.482 759.413,436.28 763.996,437.242C768.483,438.19 772.935,439.286 777.351,440.533C781.678,441.76 785.959,443.133 790.194,444.651C794.488,446.193 798.724,447.881 802.902,449.715C807.162,451.575 811.349,453.59 815.463,455.761C819.574,457.922 823.607,460.225 827.563,462.668C831.277,464.965 834.928,467.373 838.476,469.919C842.136,472.545 845.712,475.281 849.202,478.127C852.805,481.058 856.283,484.146 859.664,487.329C863.265,490.718 866.734,494.239 870.072,497.892C873.404,501.523 876.594,505.28 879.643,509.162C883.043,513.48 886.281,517.934 889.303,522.525C892.407,527.241 895.342,532.08 898.051,537.04C901.825,543.957 905.187,551.092 908.119,558.406C911.278,566.357 913.941,574.496 916.092,582.777C910.274,538.494 892.394,496.65 864.414,461.837C843.842,436.202 818.334,414.954 789.402,399.355C759.731,383.365 727.053,373.725 693.454,371.051C690.609,370.823 687.761,370.645 684.91,370.517L684.91,370.5Z" style="fill:url(#_Radial9);fill-rule:nonzero;"/>
                </g>
            </g>
        </g>
    </g>
    <defs>
        <radialGradient id="_Radial2" cx="0" cy="0" r="1" gradientUnits="userSpaceOnUse" gradientTransform="matrix(496.5,0,0,496.5,514.5,516.5)"><stop offset="0" style="stop-color:black;stop-opacity:1"/><stop offset="0.91" style="stop-color:black;stop-opacity:1"/><stop offset="1" style="stop-color:black;stop-opacity:0"/></radialGradient>
        <radialGradient id="_Radial3" cx="0" cy="0" r="1" gradientUnits="userSpaceOnUse" gradientTransform="matrix(486.27,0,0,486.27,512.06,512.12)"><stop offset="0" style="stop-color:white;stop-opacity:1"/><stop offset="1" style="stop-color:rgb(235,235,235);stop-opacity:1"/><stop offset="1" style="stop-color:rgb(218,218,218);stop-opacity:1"/><stop offset="1" style="stop-color:rgb(199,199,199);stop-opacity:1"/></radialGradient>
        <radialGradient id="_Radial4" cx="0" cy="0" r="1" gradientUnits="userSpaceOnUse" gradientTransform="matrix(444.12,0,0,444.12,512.06,512.12)"><stop offset="0" style="stop-color:black;stop-opacity:0.5"/><stop offset="0.99" style="stop-color:black;stop-opacity:0.5"/><stop offset="1" style="stop-color:black;stop-opacity:0"/></radialGradient>
        <radialGradient id="_Radial6" cx="0" cy="0" r="1" gradientUnits="userSpaceOnUse" gradientTransform="matrix(394490,0,0,394490,438899,437169)"><stop offset="0" style="stop-color:black;stop-opacity:0.5"/><stop offset="0.99" style="stop-color:black;stop-opacity:0.5"/><stop offset="1" style="stop-color:black;stop-opacity:0"/></radialGradient>
        <radialGradient id="_Radial8" cx="0" cy="0" r="1" gradientUnits="userSpaceOnUse" gradientTransform="matrix(440.453,0,0,-440.453,494.058,493.638)"><stop offset="0" style="stop-color:black;stop-opacity:1"/><stop offset="1" style="stop-color:rgb(50,47,50);stop-opacity:1"/></radialGradient>
        <radialGradient id="_Radial9" cx="0" cy="0" r="1" gradientUnits="userSpaceOnUse" gradientTransform="matrix(353.94,0,0,388.308,578.89,473.337)"><stop offset="0" style="stop-color:rgb(194,192,194);stop-opacity:1"/><stop offset="1" style="stop-color:rgb(235,235,235);stop-opacity:1"/></radialGradient>
    </defs>
</svg>
